<?xml version='1.0' encoding='utf-8'?>
<svg xmlns="http://www.w3.org/2000/svg" version="1.0" width="4542.000000pt" height="1915.000000pt" viewBox="0 0 4542.000000 1915.000000" preserveAspectRatio="xMidYMid meet"> <g transform="translate(0.000000,1915.000000) scale(0.100000,-0.100000)" fill="#000000" stroke="none"> <path d="M9120 17080 l0 -2070 -61 0 c-33 0 -70 -5 -82 -12 -64 -34 -117 -128 -124 -222 -6 -70 10 -110 78 -202 47 -61 48 -74 10 -74 -16 0 -31 -5 -33 -12 -2 -6 -31 -17 -64 -24 -92 -19 -135 -43 -170 -98 -18 -26 -45 -61 -61 -78 -15 -16 -41 -57 -58 -91 l-30 -61 -85 -19 c-108 -22 -176 -55 -226 -109 -70 -75 -75 -88 -74 -180 1 -46 -3 -150 -9 -233 -5 -82 -10 -251 -10 -375 1 -124 1 -252 0 -285 -2 -96 10 -120 46 -97 7 4 19 55 28 112 9 57 17 106 19 107 2 2 9 -25 16 -60 14 -76 3 -144 -37 -235 -49 -112 -86 -135 -385 -233 -380 -125 -751 -291 -1023 -459 -38 -23 -91 -55 -117 -71 -59 -35 -221 -143 -268 -179 -19 -15 -60 -45 -90 -68 -177 -132 -374 -311 -570 -518 -73 -77 -93 -100 -221 -254 -464 -561 -829 -1354 -959 -2085 -71 -399 -97 -833 -71 -1181 32 -425 126 -874 266 -1269 153 -431 420 -923 687 -1265 32 -41 62 -79 66 -85 90 -121 305 -356 444 -486 281 -262 597 -496 913 -673 66 -37 131 -74 145 -82 66 -38 291 -142 425 -196 336 -135 693 -237 1026 -292 111 -19 354 -37 564 -42 334 -9 664 14 890 62 39 8 113 23 165 34 247 53 629 175 825 265 17 7 53 23 82 34 83 33 344 166 465 238 203 120 531 348 614 428 6 5 32 28 59 50 367 300 760 771 1020 1225 126 219 292 586 368 810 121 361 196 713 232 1090 20 216 24 593 8 803 -13 166 -58 488 -73 522 -5 11 -11 36 -14 55 -12 87 -38 204 -72 315 -19 66 -42 143 -49 170 -30 110 -234 619 -265 660 -4 6 -37 67 -73 137 -64 124 -219 379 -281 465 -17 23 -49 68 -71 99 -104 149 -421 515 -517 599 -18 15 -67 60 -108 99 -102 96 -298 256 -315 256 -8 0 -18 6 -22 14 -16 30 -269 204 -426 295 -18 11 -68 40 -112 66 -107 63 -412 211 -560 273 -109 46 -172 69 -450 164 -106 36 -168 67 -212 106 -59 51 -110 255 -86 342 5 19 12 0 28 -79 21 -107 40 -140 66 -114 14 14 27 943 15 1056 -7 61 -12 73 -56 126 -57 67 -121 101 -240 125 -41 9 -78 16 -81 16 -4 0 -17 26 -30 58 -13 31 -40 75 -60 97 -20 22 -44 54 -52 71 -9 18 -30 43 -47 57 -31 26 -119 57 -163 57 -13 0 -30 6 -37 14 -6 8 -25 16 -41 18 l-30 3 46 60 c26 33 58 81 71 108 38 75 34 174 -11 252 -36 62 -64 83 -115 87 l-45 3 -2 555 c-2 305 -3 1236 -3 2068 l0 1512 -70 0 -70 0 0 -2070z m248 -2224 c22 -56 23 -60 9 -122 -11 -48 -27 -80 -59 -120 -23 -31 -52 -71 -63 -90 l-20 -34 -87 0 c-74 0 -87 3 -92 18 -3 9 -16 28 -29 42 -106 116 -132 234 -67 312 16 19 19 20 20 6 0 -33 30 -20 30 13 l0 30 68 -6 c37 -3 105 -2 152 3 47 5 92 9 100 8 8 -1 25 -27 38 -60z m247 -2760 c538 -69 1048 -234 1513 -490 97 -54 329 -199 342 -215 3 -4 23 -18 45 -33 22 -14 49 -33 60 -42 11 -9 49 -39 85 -67 257 -201 488 -432 689 -689 28 -36 58 -74 67 -85 9 -11 28 -38 42 -60 15 -22 29 -42 33 -45 16 -13 161 -245 215 -342 259 -471 423 -980 491 -1528 25 -206 25 -745 0 -945 -41 -324 -98 -573 -203 -884 -25 -73 -58 -162 -75 -197 -16 -36 -29 -67 -29 -70 0 -6 -47 -108 -99 -214 -45 -93 -215 -390 -243 -425 -4 -5 -51 -71 -105 -145 -53 -74 -99 -137 -102 -140 -3 -3 -24 -27 -46 -55 -22 -27 -44 -55 -50 -61 -5 -7 -39 -44 -75 -84 -56 -63 -103 -110 -269 -272 -23 -22 -128 -113 -218 -188 -105 -89 -393 -282 -545 -366 -494 -272 -992 -432 -1568 -501 -203 -24 -688 -24 -885 0 -396 49 -706 125 -1040 254 -157 60 -164 63 -330 145 -156 76 -406 216 -425 237 -3 4 -25 19 -50 35 -41 27 -254 182 -287 210 -125 103 -185 158 -328 301 -142 142 -180 184 -264 285 -11 14 -25 30 -30 36 -25 30 -181 245 -207 284 -16 25 -31 47 -35 50 -21 19 -161 269 -237 425 -82 166 -85 173 -145 330 -172 445 -259 881 -274 1370 -20 692 131 1363 446 1978 159 311 320 552 541 811 77 90 265 282 360 366 40 36 77 70 84 75 6 6 34 28 61 50 28 22 52 43 55 46 3 3 66 49 140 102 74 54 140 100 145 105 20 15 211 131 270 163 507 275 1021 434 1598 494 174 18 712 13 882 -9z"/> <path d="M7898 10180 c-344 -62 -615 -387 -709 -849 -26 -127 -36 -386 -19 -517 52 -422 258 -767 542 -910 97 -49 176 -67 288 -67 177 1 324 68 471 213 119 119 203 252 263 420 117 323 124 700 20 1025 -108 337 -335 593 -594 669 -67 20 -198 28 -262 16z m145 -1880 c31 -35 36 -84 12 -129 -14 -28 -68 -61 -100 -61 -32 0 -86 33 -100 61 -23 44 -19 93 11 128 48 57 125 58 177 1z"/> <path d="M10178 10165 c-363 -89 -672 -502 -754 -1011 -23 -141 -23 -374 -1 -506 117 -686 654 -1005 1139 -677 137 93 274 259 368 447 175 352 208 817 84 1179 -101 294 -311 512 -545 568 -78 18 -215 18 -291 0z m32 -1910 c58 -30 76 -104 40 -163 -22 -36 -54 -52 -107 -52 -53 0 -103 53 -103 110 0 52 13 76 53 100 38 24 78 25 117 5z"/> <path d="M12255 8374 c-47 -26 -66 -46 -86 -89 -26 -56 -24 -110 7 -171 l26 -52 -146 -203 c-782 -1091 -1502 -1786 -2143 -2067 -531 -234 -1020 -222 -1561 38 -386 186 -728 445 -1157 874 -322 322 -598 644 -973 1135 l-133 174 7 57 c13 114 -56 200 -167 208 -72 5 -108 -8 -154 -59 -41 -46 -49 -72 -43 -144 10 -116 135 -196 242 -155 24 9 31 1 169 -183 776 -1036 1438 -1691 2063 -2040 249 -139 496 -226 748 -263 149 -22 408 -14 551 16 816 175 1689 955 2700 2413 104 149 111 157 143 157 62 0 139 54 161 113 14 37 14 123 0 150 -7 12 -28 40 -48 62 -36 39 -39 40 -106 43 -50 1 -79 -3 -100 -14z"/> <path d="M22310 17080 l0 -2070 -61 0 c-33 0 -70 -5 -82 -12 -64 -34 -117 -128 -124 -222 -6 -70 10 -110 78 -202 47 -61 48 -74 10 -74 -16 0 -31 -5 -33 -12 -2 -6 -31 -17 -64 -24 -92 -19 -135 -43 -170 -98 -18 -26 -45 -61 -61 -78 -15 -16 -41 -57 -58 -91 l-30 -61 -85 -19 c-108 -22 -176 -55 -226 -109 -70 -75 -75 -88 -74 -180 1 -46 -3 -150 -9 -233 -5 -82 -10 -251 -10 -375 1 -124 1 -252 0 -285 -2 -96 10 -120 46 -97 7 4 19 55 28 112 9 57 17 106 19 107 2 2 9 -25 16 -60 14 -76 3 -144 -37 -235 -49 -112 -86 -135 -385 -233 -380 -125 -751 -291 -1023 -459 -38 -23 -91 -55 -117 -71 -59 -35 -221 -143 -268 -179 -19 -15 -60 -45 -90 -68 -177 -132 -374 -311 -570 -518 -73 -77 -93 -100 -221 -254 -464 -561 -829 -1354 -959 -2085 -71 -399 -97 -833 -71 -1181 32 -425 126 -874 266 -1269 153 -431 420 -923 687 -1265 32 -41 62 -79 66 -85 90 -121 305 -356 444 -486 281 -262 597 -496 913 -673 66 -37 131 -74 145 -82 66 -38 291 -142 425 -196 336 -135 693 -237 1026 -292 111 -19 354 -37 564 -42 334 -9 664 14 890 62 39 8 113 23 165 34 247 53 629 175 825 265 17 7 53 23 82 34 83 33 344 166 465 238 203 120 531 348 614 428 6 5 32 28 59 50 367 300 760 771 1020 1225 126 219 292 586 368 810 121 361 196 713 232 1090 20 216 24 593 8 803 -13 166 -58 488 -73 522 -5 11 -11 36 -14 55 -12 87 -38 204 -72 315 -19 66 -42 143 -49 170 -30 110 -234 619 -265 660 -4 6 -37 67 -73 137 -64 124 -219 379 -281 465 -17 23 -49 68 -71 99 -104 149 -421 515 -517 599 -18 15 -67 60 -108 99 -102 96 -298 256 -315 256 -8 0 -18 6 -22 14 -16 30 -269 204 -426 295 -18 11 -68 40 -112 66 -107 63 -412 211 -560 273 -109 46 -172 69 -450 164 -106 36 -168 67 -212 106 -59 51 -110 255 -86 342 5 19 12 0 28 -79 21 -107 40 -140 66 -114 14 14 27 943 15 1056 -7 61 -12 73 -56 126 -57 67 -121 101 -240 125 -41 9 -78 16 -81 16 -4 0 -17 26 -30 58 -13 31 -40 75 -60 97 -20 22 -44 54 -52 71 -9 18 -30 43 -47 57 -31 26 -119 57 -163 57 -13 0 -30 6 -37 14 -6 8 -25 16 -41 18 l-30 3 46 60 c26 33 58 81 71 108 38 75 34 174 -11 252 -36 62 -64 83 -115 87 l-45 3 -2 555 c-2 305 -3 1236 -3 2068 l0 1512 -70 0 -70 0 0 -2070z m248 -2224 c22 -56 23 -60 9 -122 -11 -48 -27 -80 -59 -120 -23 -31 -52 -71 -63 -90 l-20 -34 -87 0 c-74 0 -87 3 -92 18 -3 9 -16 28 -29 42 -106 116 -132 234 -67 312 16 19 19 20 20 6 0 -33 30 -20 30 13 l0 30 68 -6 c37 -3 105 -2 152 3 47 5 92 9 100 8 8 -1 25 -27 38 -60z m247 -2760 c536 -68 1049 -235 1513 -490 97 -54 329 -199 342 -215 3 -4 23 -18 45 -33 22 -14 49 -33 60 -42 11 -9 49 -39 85 -67 257 -201 488 -432 689 -689 28 -36 58 -74 67 -85 9 -11 28 -38 42 -60 15 -22 29 -42 33 -45 16 -13 161 -245 215 -342 259 -471 423 -980 491 -1528 25 -206 25 -745 0 -945 -41 -324 -98 -573 -203 -884 -25 -73 -58 -162 -75 -197 -16 -36 -29 -67 -29 -70 0 -6 -47 -108 -99 -214 -45 -93 -215 -390 -243 -425 -4 -5 -51 -71 -105 -145 -53 -74 -99 -137 -102 -140 -3 -3 -24 -27 -46 -55 -22 -27 -44 -55 -50 -61 -5 -7 -39 -44 -75 -84 -57 -64 -132 -140 -283 -285 -23 -22 -74 -66 -112 -98 -39 -33 -80 -67 -92 -77 -103 -88 -393 -282 -545 -366 -494 -272 -992 -432 -1568 -501 -203 -24 -688 -24 -885 0 -396 49 -706 125 -1040 254 -157 60 -164 63 -330 145 -156 76 -406 216 -425 237 -3 4 -25 19 -50 35 -41 27 -254 182 -287 210 -125 103 -185 158 -328 301 -142 142 -180 184 -264 285 -11 14 -25 30 -30 36 -25 30 -181 245 -207 284 -16 25 -31 47 -35 50 -7 7 -98 158 -143 240 -663 1201 -688 2650 -68 3862 160 312 320 552 542 812 77 90 265 282 360 366 40 36 77 70 84 75 6 6 34 28 61 50 28 22 52 43 55 46 3 3 66 49 140 102 74 54 140 100 145 105 6 4 55 35 110 69 543 333 1150 532 1800 592 149 14 696 5 840 -13z"/> <path d="M21064 10176 c-335 -77 -593 -395 -685 -845 -26 -127 -36 -386 -19 -517 52 -422 258 -767 542 -910 97 -49 176 -67 288 -67 177 1 324 68 471 213 200 199 314 466 350 818 27 261 -31 592 -141 813 -122 243 -315 423 -520 483 -78 23 -212 29 -286 12z m266 -1068 c26 -14 57 -41 75 -66 25 -36 30 -53 29 -100 0 -109 -68 -186 -172 -199 -43 -5 -60 -1 -104 20 -104 51 -140 164 -87 268 46 90 164 125 259 77z"/> <path d="M23369 10165 c-191 -47 -386 -197 -524 -404 -111 -168 -188 -364 -227 -581 -26 -149 -29 -392 -5 -532 118 -687 654 -1005 1139 -677 137 93 274 259 368 447 175 352 208 817 84 1179 -101 294 -311 512 -545 568 -78 18 -214 18 -290 0z m203 -1087 c115 -57 130 -243 27 -320 -71 -53 -140 -58 -221 -17 -125 64 -128 262 -5 334 62 37 130 38 199 3z"/> <path d="M19880 6790 l0 -100 2580 0 2580 0 0 100 0 100 -2580 0 -2580 0 0 -100z"/> <path d="M35440 17080 l0 -2070 -61 0 c-33 0 -70 -5 -82 -12 -64 -34 -117 -128 -124 -222 -6 -70 10 -110 78 -202 47 -61 48 -74 10 -74 -16 0 -31 -5 -33 -12 -2 -6 -31 -17 -64 -24 -92 -19 -135 -43 -170 -98 -18 -26 -45 -61 -61 -78 -15 -16 -41 -57 -58 -91 l-30 -61 -85 -19 c-108 -22 -176 -55 -226 -109 -70 -75 -75 -88 -74 -180 1 -46 -3 -150 -9 -233 -5 -82 -10 -251 -10 -375 1 -124 1 -252 0 -285 -2 -96 10 -120 46 -97 7 4 19 55 28 112 9 57 17 106 19 107 2 2 9 -25 16 -60 14 -76 3 -144 -37 -235 -49 -112 -86 -135 -385 -233 -380 -125 -751 -291 -1023 -459 -38 -23 -91 -55 -117 -71 -59 -35 -221 -143 -268 -179 -19 -15 -60 -45 -90 -68 -177 -132 -374 -311 -570 -518 -73 -77 -93 -100 -221 -254 -464 -561 -829 -1354 -959 -2085 -71 -399 -97 -833 -71 -1181 32 -425 126 -874 266 -1269 153 -431 420 -923 687 -1265 32 -41 62 -79 66 -85 90 -121 305 -356 444 -486 281 -262 597 -496 913 -673 66 -37 131 -74 145 -82 66 -38 291 -142 425 -196 336 -135 693 -237 1026 -292 111 -19 354 -37 564 -42 334 -9 664 14 890 62 39 8 113 23 165 34 247 53 629 175 825 265 17 7 53 23 82 34 83 33 344 166 465 238 203 120 531 348 614 428 6 5 32 28 59 50 367 300 760 771 1020 1225 126 219 292 586 368 810 121 361 196 713 232 1090 20 216 24 593 8 803 -13 166 -58 488 -73 522 -5 11 -11 36 -14 55 -12 87 -38 204 -72 315 -19 66 -42 143 -49 170 -30 110 -234 619 -265 660 -4 6 -37 67 -73 137 -64 124 -219 379 -281 465 -17 23 -49 68 -71 99 -104 149 -421 515 -517 599 -18 15 -67 60 -108 99 -102 96 -298 256 -315 256 -8 0 -18 6 -22 14 -16 30 -269 204 -426 295 -18 11 -68 40 -112 66 -107 63 -412 211 -560 273 -109 46 -172 69 -450 164 -106 36 -168 67 -212 106 -59 51 -110 255 -86 342 5 19 12 0 28 -79 21 -107 40 -140 66 -114 14 14 27 943 15 1056 -7 61 -12 73 -56 126 -57 67 -121 101 -240 125 -41 9 -78 16 -81 16 -4 0 -17 26 -30 58 -13 31 -40 75 -60 97 -20 22 -44 54 -52 71 -9 18 -30 43 -47 57 -31 26 -119 57 -163 57 -13 0 -30 6 -37 14 -6 8 -25 16 -41 18 l-30 3 46 60 c26 33 58 81 71 108 38 75 34 174 -11 252 -36 62 -64 83 -115 87 l-45 3 -2 555 c-2 305 -3 1236 -3 2068 l0 1512 -70 0 -70 0 0 -2070z m248 -2224 c22 -56 23 -60 9 -122 -11 -48 -27 -80 -59 -120 -23 -31 -52 -71 -63 -90 l-20 -34 -87 0 c-74 0 -87 3 -92 18 -3 9 -16 28 -29 42 -106 116 -132 234 -67 312 16 19 19 20 20 6 0 -33 30 -20 30 13 l0 30 68 -6 c37 -3 105 -2 152 3 47 5 92 9 100 8 8 -1 25 -27 38 -60z m247 -2760 c538 -69 1048 -234 1513 -490 97 -54 329 -199 342 -215 3 -4 23 -18 45 -33 22 -14 49 -33 60 -42 11 -9 49 -39 85 -67 257 -201 488 -432 689 -689 28 -36 58 -74 67 -85 9 -11 28 -38 42 -60 15 -22 29 -42 33 -45 16 -13 161 -245 215 -342 259 -471 423 -980 491 -1528 25 -206 25 -745 0 -945 -41 -324 -98 -573 -203 -884 -25 -73 -58 -162 -75 -197 -16 -36 -29 -67 -29 -70 0 -6 -47 -108 -99 -214 -45 -93 -215 -390 -243 -425 -4 -5 -51 -71 -105 -145 -53 -74 -99 -137 -102 -140 -3 -3 -24 -27 -46 -55 -22 -27 -44 -55 -50 -61 -5 -7 -39 -44 -75 -84 -56 -63 -103 -110 -269 -272 -23 -22 -128 -113 -218 -188 -105 -89 -393 -282 -545 -366 -494 -272 -992 -432 -1568 -501 -203 -24 -688 -24 -885 0 -396 49 -706 125 -1040 254 -157 60 -164 63 -330 145 -156 76 -406 216 -425 237 -3 4 -25 19 -50 35 -41 27 -254 182 -287 210 -125 103 -185 158 -328 301 -142 142 -180 184 -264 285 -11 14 -25 30 -30 36 -25 30 -181 245 -207 284 -16 25 -31 47 -35 50 -21 19 -161 269 -237 425 -82 166 -85 173 -145 330 -172 445 -259 881 -274 1370 -20 692 131 1363 446 1978 159 311 320 552 541 811 77 90 265 282 360 366 40 36 77 70 84 75 6 6 34 28 61 50 28 22 52 43 55 46 3 3 66 49 140 102 74 54 140 100 145 105 20 15 211 131 270 163 507 275 1021 434 1598 494 174 18 712 13 882 -9z"/> <path d="M34218 10750 c-344 -62 -615 -387 -709 -849 -26 -127 -36 -386 -19 -517 52 -422 258 -767 542 -910 97 -49 176 -67 288 -67 177 1 324 68 471 213 199 197 317 471 350 813 26 274 -29 593 -141 818 -122 243 -315 423 -520 483 -67 20 -198 28 -262 16z m145 -1880 c48 -54 30 -142 -37 -174 -42 -20 -59 -20 -100 -1 -67 32 -87 119 -40 174 48 57 125 58 177 1z"/> <path d="M36498 10735 c-363 -89 -672 -502 -754 -1011 -23 -142 -23 -373 0 -509 93 -552 478 -891 891 -785 43 11 102 31 131 44 186 85 363 274 484 514 175 352 208 817 84 1179 -101 294 -311 512 -545 568 -78 18 -215 18 -291 0z m32 -1910 c58 -30 76 -104 40 -163 -22 -36 -54 -52 -107 -52 -53 0 -103 53 -103 110 0 52 13 76 53 100 38 24 78 25 117 5z"/> <path d="M35305 8049 c-631 -92 -1358 -691 -2160 -1780 l-100 -136 -54 5 c-40 4 -62 1 -88 -13 -97 -52 -98 -201 -1 -251 44 -23 114 -21 146 3 51 38 66 70 65 131 -1 56 1 59 70 152 435 586 882 1059 1275 1348 249 183 527 317 772 369 118 25 391 25 507 0 236 -51 493 -174 737 -355 381 -282 787 -725 1227 -1339 60 -83 109 -156 109 -163 0 -6 -7 -22 -17 -36 -41 -63 -7 -166 66 -199 96 -43 201 25 201 130 0 71 -51 130 -122 142 -36 5 -45 14 -91 81 -809 1173 -1523 1804 -2157 1907 -102 16 -287 18 -385 4z"/> </g> </svg>